# xmcd
#
# Track frame offsets: 
#        150
#        17475
#        32694
#        61404
#
# Disc length: 1550 seconds
#
# Revision: 0
# Processed by: cddbd v1.5.2PL0 Copyright (c) Steve Scherf et al.
# Submitted via: ExactAudioCopy v0.95b4
#
DISCID=27060c04
DTITLE=Queens of the Stone Age - Make It Wit Chu
DYEAR=2007
DGENRE=Rock and Roll
TTITLE0=Make it Wit Chu (edit)
TTITLE1=Needles In The Camel's Eye
TTITLE2=White Wedding
TTITLE3=Make it Wit Chu (Video)
EXTD=
EXTT0=
EXTT1=
EXTT2=
EXTT3=
PLAYORDER=
